# xmcd CD database file
# Copyright (C) 1993-1999  Ti Kan
#
# Track frame offsets:
#	180
#	11204
#	20015
#	31779
#	45302
#	57406
#	74274
#	89599
#	104192
#	119474
#	137563
#	149963
#
# Disc length: 2177 seconds
#
# Revision: 1
# Processed by: cddbd v1.4PL0 Copyright (c) Steve Scherf et al.
# Submitted via: xmcd 2.5 PL1
#
DISCID=b6087f0c
DTITLE=Various Artist - Honkey-Tonk Holidays
DYEAR=1900
DGENRE=
TTITLE0=Cowboys and Indians - Merry Christmas Miss Molly
TTITLE1=Old 97's - Holly Jolly Christmas
TTITLE2=The Sutcliffs - Alcoholidays
TTITLE3=Mutineers - Santa Claus Is Coming To Town
TTITLE4=Donny Ray Ford and Liberty Valence - Santa Looked Alot Like Daddy
TTITLE5=Old 97's - I'll Be Home For Christmas
TTITLE6=Mark David Manders and Nuevo Tejas - Christmas Made For Two
TTITLE7=Andy Owens and Druhá Tráva - The Little Drummer Boy
TTITLE8=Frankly  Scarlet - The Coventry Carol
TTITLE9=A.W. Wooley and the Swingin' Doors - I'll Be Having Christmas With
TTITLE9=the Blues
TTITLE10=Cowboys and Indians - Santa, Santa
TTITLE11=The Sutcliffs - Back Door Santa
EXTD=Christmas in Deep Noellum
EXTT0=
EXTT1=
EXTT2=
EXTT3=
EXTT4=
EXTT5=
EXTT6=
EXTT7=
EXTT8=
EXTT9=
EXTT10=
EXTT11=
PLAYORDER=
